<svg xmlns="http://www.w3.org/2000/svg" xmlns:xlink="http://www.w3.org/1999/xlink" contentStyleType="text/css" data-diagram-type="CLASS" height="520px" preserveAspectRatio="none" style="width:505px;height:520px;background:#FFFFFF;" version="1.1" viewBox="0 0 505 520" width="505px" zoomAndPan="magnify"><?plantuml $version$?><defs/><g><g class="title" data-source-line="1"><text fill="#000000" font-family="sans-serif" font-size="14" font-weight="700" lengthAdjust="spacing" textLength="383.2626" x="57.6377" y="24.9659">Buffer factory, buffer agent, and File-agent integration</text></g><!--class Factory--><g class="entity" data-qualified-name="Factory" data-source-line="8" id="ent0001"><rect fill="#F4C99A" height="121.3396" rx="2.5" ry="2.5" style="stroke:#37474F;stroke-width:0.5;" width="254.9271" x="7" y="47.0679"/><ellipse cx="68.7468" cy="71.1358" fill="#ADD1B2" rx="11" ry="11" style="stroke:#181818;stroke-width:1;"/><path d="M68.2155,78.0577 Q66.4655,78.0577 65.3249,77.3233 Q64.1999,76.5733 63.6374,75.2296 Q63.0905,73.8702 63.0905,72.0733 Q63.0905,70.0421 63.7468,68.589 Q64.403,67.1358 65.6843,66.3546 Q66.9655,65.5733 68.8405,65.5733 Q69.7312,65.5733 70.403,65.7608 Q71.0749,65.9327 71.7624,66.2765 L70.9499,68.2921 Q70.3249,67.9796 69.778,67.8546 Q69.2468,67.7296 68.7624,67.7296 Q67.5905,67.7296 66.8874,68.2608 Q66.1843,68.7921 65.8874,69.7452 Q65.5905,70.6983 65.5905,71.964 Q65.5905,73.9796 66.3093,74.9483 Q67.028,75.9015 68.6218,75.9015 Q69.2155,75.9015 69.8405,75.7452 Q70.4655,75.589 71.2937,75.214 L71.2937,77.4327 Q70.5593,77.7452 69.7624,77.9015 Q68.9812,78.0577 68.2155,78.0577 Z " fill="#000000"/><text fill="#263238" font-family="sans-serif" font-size="14" lengthAdjust="spacing" textLength="89.3477" x="106.0397" y="67.0339">BufferFactory</text><text fill="#263238" font-family="sans-serif" font-size="14" lengthAdjust="spacing" textLength="122.9335" x="89.2468" y="86.1018">rho:lang:buffer:1.*</text><line style="stroke:#37474F;stroke-width:0.5;" x1="8" x2="260.9271" y1="95.2038" y2="95.2038"/><line style="stroke:#37474F;stroke-width:0.5;" x1="8" x2="260.9271" y1="103.2038" y2="103.2038"/><g data-visibility-modifier="PUBLIC_METHOD"><ellipse cx="18" cy="118.2377" fill="#84BE84" rx="3" ry="3" style="stroke:#038048;stroke-width:1;"/></g><text fill="#263238" font-family="sans-serif" font-size="14" lengthAdjust="spacing" textLength="228.9271" x="27" y="122.1697">alloc(nUnits, unit) : bundle+ handle</text><g data-visibility-modifier="PUBLIC_METHOD"><ellipse cx="18" cy="137.3056" fill="#84BE84" rx="3" ry="3" style="stroke:#038048;stroke-width:1;"/></g><text fill="#263238" font-family="sans-serif" font-size="14" lengthAdjust="spacing" textLength="83.2157" x="27" y="141.2376">allocBytes(n)</text><g data-visibility-modifier="PUBLIC_METHOD"><ellipse cx="18" cy="156.3735" fill="#84BE84" rx="3" ry="3" style="stroke:#038048;stroke-width:1;"/></g><text fill="#263238" font-family="sans-serif" font-size="14" lengthAdjust="spacing" textLength="75.4317" x="27" y="160.3055">allocUtf8(n)</text></g><!--class Buffer--><g class="entity" data-qualified-name="Buffer" data-source-line="13" id="ent0002"><rect fill="#DDF0DD" height="257.7471" rx="2.5" ry="2.5" style="stroke:#37474F;stroke-width:0.5;" width="242.6071" x="142.16" y="247.4079"/><ellipse cx="217.8297" cy="263.4079" fill="#ADD1B2" rx="11" ry="11" style="stroke:#181818;stroke-width:1;"/><path d="M217.2985,270.3298 Q215.5485,270.3298 214.4079,269.5954 Q213.2829,268.8454 212.7204,267.5017 Q212.1735,266.1423 212.1735,264.3454 Q212.1735,262.3142 212.8297,260.861 Q213.486,259.4079 214.7672,258.6267 Q216.0485,257.8454 217.9235,257.8454 Q218.8141,257.8454 219.486,258.0329 Q220.1579,258.2048 220.8454,258.5485 L220.0329,260.5642 Q219.4079,260.2517 218.861,260.1267 Q218.3297,260.0017 217.8454,260.0017 Q216.6735,260.0017 215.9704,260.5329 Q215.2672,261.0642 214.9704,262.0173 Q214.6735,262.9704 214.6735,264.236 Q214.6735,266.2517 215.3922,267.2204 Q216.111,268.1735 217.7047,268.1735 Q218.2985,268.1735 218.9235,268.0173 Q219.5485,267.861 220.3766,267.486 L220.3766,269.7048 Q219.6422,270.0173 218.8454,270.1735 Q218.0641,270.3298 217.2985,270.3298 Z " fill="#000000"/><text fill="#263238" font-family="sans-serif" font-size="14" lengthAdjust="spacing" textLength="82.7677" x="238.3297" y="268.8399">Buffer agent</text><line style="stroke:#37474F;stroke-width:0.5;" x1="143.16" x2="383.7671" y1="279.4079" y2="279.4079"/><g data-visibility-modifier="PRIVATE_METHOD"><rect fill="#F24D5C" height="6" style="stroke:#C82930;stroke-width:1;" width="6" x="150.16" y="291.4419"/></g><text fill="#263238" font-family="sans-serif" font-size="14" lengthAdjust="spacing" textLength="115.1496" x="162.16" y="298.3739">bytes b   (|b| = C)</text><g data-visibility-modifier="PRIVATE_FIELD"><rect fill="none" height="6" style="stroke:#C82930;stroke-width:1;" width="6" x="150.16" y="310.5098"/></g><text fill="#263238" font-family="sans-serif" font-size="14" lengthAdjust="spacing" textLength="53.3958" x="162.16" y="317.4418">length &#8467;</text><g data-visibility-modifier="PRIVATE_FIELD"><rect fill="none" height="6" style="stroke:#C82930;stroke-width:1;" width="6" x="150.16" y="329.5777"/></g><text fill="#263238" font-family="sans-serif" font-size="14" lengthAdjust="spacing" textLength="54.1518" x="162.16" y="336.5097">cursor &#961;</text><g data-visibility-modifier="PRIVATE_FIELD"><rect fill="none" height="6" style="stroke:#C82930;stroke-width:1;" width="6" x="150.16" y="348.6456"/></g><text fill="#263238" font-family="sans-serif" font-size="14" lengthAdjust="spacing" textLength="66.0517" x="162.16" y="355.5776">capacity C</text><line style="stroke:#37474F;stroke-width:1;" x1="143.16" x2="383.7671" y1="363.6796" y2="363.6796"/><g data-visibility-modifier="PUBLIC_METHOD"><ellipse cx="153.16" cy="378.7135" fill="#84BE84" rx="3" ry="3" style="stroke:#038048;stroke-width:1;"/></g><text fill="#263238" font-family="sans-serif" font-size="14" lengthAdjust="spacing" textLength="213.9751" x="162.16" y="382.6455">capacity() / length() / remaining()</text><g data-visibility-modifier="PUBLIC_METHOD"><ellipse cx="153.16" cy="397.7815" fill="#84BE84" rx="3" ry="3" style="stroke:#038048;stroke-width:1;"/></g><text fill="#263238" font-family="sans-serif" font-size="14" lengthAdjust="spacing" textLength="114.7435" x="162.16" y="401.7134">isFull() / isEmpty()</text><g data-visibility-modifier="PUBLIC_METHOD"><ellipse cx="153.16" cy="416.8494" fill="#84BE84" rx="3" ry="3" style="stroke:#038048;stroke-width:1;"/></g><text fill="#263238" font-family="sans-serif" font-size="14" lengthAdjust="spacing" textLength="182.5873" x="162.16" y="420.7814">writeByte(x) / writeBytes(xs)</text><g data-visibility-modifier="PUBLIC_METHOD"><ellipse cx="153.16" cy="435.9173" fill="#84BE84" rx="3" ry="3" style="stroke:#038048;stroke-width:1;"/></g><text fill="#263238" font-family="sans-serif" font-size="14" lengthAdjust="spacing" textLength="216.6071" x="162.16" y="439.8493">read(n) / slice(o,n) / toByteArray()</text><g data-visibility-modifier="PUBLIC_METHOD"><ellipse cx="153.16" cy="454.9852" fill="#84BE84" rx="3" ry="3" style="stroke:#038048;stroke-width:1;"/></g><text fill="#263238" font-family="sans-serif" font-size="14" lengthAdjust="spacing" textLength="162.1333" x="162.16" y="458.9172">view() / charAt(i) / chars()</text><g data-visibility-modifier="PUBLIC_METHOD"><ellipse cx="153.16" cy="474.0531" fill="#84BE84" rx="3" ry="3" style="stroke:#038048;stroke-width:1;"/></g><text fill="#263238" font-family="sans-serif" font-size="14" lengthAdjust="spacing" textLength="40.2638" x="162.16" y="477.9851">clear()</text><g data-visibility-modifier="PUBLIC_METHOD"><ellipse cx="153.16" cy="493.121" fill="#84BE84" rx="3" ry="3" style="stroke:#038048;stroke-width:1;"/></g><text fill="#263238" font-family="sans-serif" font-size="14" lengthAdjust="spacing" textLength="95.1016" x="162.16" y="497.053">default(...args)</text></g><!--class File--><g class="entity" data-qualified-name="File" data-source-line="27" id="ent0003"><rect fill="#D2ECEC" height="105.2038" rx="2.5" ry="2.5" style="stroke:#37474F;stroke-width:0.5;" width="190.4293" x="297.25" y="55.1379"/><ellipse cx="356.1688" cy="71.1379" fill="#ADD1B2" rx="11" ry="11" style="stroke:#181818;stroke-width:1;"/><path d="M355.6375,78.0598 Q353.8875,78.0598 352.7469,77.3254 Q351.6219,76.5754 351.0594,75.2317 Q350.5125,73.8723 350.5125,72.0754 Q350.5125,70.0442 351.1688,68.591 Q351.825,67.1379 353.1063,66.3567 Q354.3875,65.5754 356.2625,65.5754 Q357.1532,65.5754 357.825,65.7629 Q358.4969,65.9348 359.1844,66.2785 L358.3719,68.2942 Q357.7469,67.9817 357.2,67.8567 Q356.6688,67.7317 356.1844,67.7317 Q355.0125,67.7317 354.3094,68.2629 Q353.6063,68.7942 353.3094,69.7473 Q353.0125,70.7004 353.0125,71.966 Q353.0125,73.9817 353.7313,74.9504 Q354.45,75.9035 356.0438,75.9035 Q356.6375,75.9035 357.2625,75.7473 Q357.8875,75.591 358.7157,75.216 L358.7157,77.4348 Q357.9813,77.7473 357.1844,77.9035 Q356.4032,78.0598 355.6375,78.0598 Z " fill="#000000"/><text fill="#263238" font-family="sans-serif" font-size="14" lengthAdjust="spacing" textLength="64.0918" x="376.6688" y="76.5699">File agent</text><line style="stroke:#37474F;stroke-width:0.5;" x1="298.25" x2="486.6793" y1="87.1379" y2="87.1379"/><line style="stroke:#37474F;stroke-width:0.5;" x1="298.25" x2="486.6793" y1="95.1379" y2="95.1379"/><g data-visibility-modifier="PUBLIC_METHOD"><ellipse cx="308.25" cy="110.1719" fill="#84BE84" rx="3" ry="3" style="stroke:#038048;stroke-width:1;"/></g><text fill="#263238" font-family="sans-serif" font-size="14" lengthAdjust="spacing" textLength="163.5894" x="317.25" y="114.1039">read(buf) / readAt(buf, o)</text><g data-visibility-modifier="PUBLIC_METHOD"><ellipse cx="308.25" cy="129.2398" fill="#84BE84" rx="3" ry="3" style="stroke:#038048;stroke-width:1;"/></g><text fill="#263238" font-family="sans-serif" font-size="14" lengthAdjust="spacing" textLength="164.4293" x="317.25" y="133.1718">readLine(buf) / write(buf)</text><g data-visibility-modifier="PUBLIC_METHOD"><ellipse cx="308.25" cy="148.3077" fill="#84BE84" rx="3" ry="3" style="stroke:#038048;stroke-width:1;"/></g><text fill="#263238" font-family="sans-serif" font-size="14" lengthAdjust="spacing" textLength="105.9796" x="317.25" y="152.2397">lines(bufOfBufs)</text></g><!--link Factory to Buffer--><g class="link" data-entity-1="ent0001" data-entity-2="ent0002" data-link-type="dependency" data-source-line="32" id="lnk4"><path codeLine="32" d="M163.57,168.8879 C174.83,192.1479 185.9915,215.2175 199.2015,242.5075" fill="none" id="Factory-to-Buffer" style="stroke:#181818;stroke-width:1;stroke-dasharray:7,7;"/><polygon fill="#181818" points="201.38,247.0079,201.0591,237.1643,199.2015,242.5075,193.8583,240.6499,201.38,247.0079" style="stroke:#181818;stroke-width:1;stroke-linejoin:miter;stroke-miterlimit:10;"/><text fill="#000000" font-family="sans-serif" font-size="13" lengthAdjust="spacing" textLength="154.2841" x="184.62" y="213.3049">creates (returns bundle+)</text></g><!--link File to Buffer--><g class="link" data-entity-1="ent0003" data-entity-2="ent0002" data-link-type="dependency" data-source-line="33" id="lnk5"><path codeLine="33" d="M372.18,160.5979 C364.77,178.7379 356.09,199.1279 347.46,217.4079 C342.89,227.0979 340.2732,232.5694 335.2732,242.5294" fill="none" id="File-to-Buffer" style="stroke:#181818;stroke-width:1;stroke-dasharray:7,7;"/><polygon fill="#181818" points="333.03,246.9979,340.6427,240.7491,335.2732,242.5294,333.493,237.1599,333.03,246.9979" style="stroke:#181818;stroke-width:1;stroke-linejoin:miter;stroke-miterlimit:10;"/><text fill="#000000" font-family="sans-serif" font-size="13" lengthAdjust="spacing" textLength="133.0681" x="356.47" y="213.3049">fills via buf!writeBytes</text></g><?plantuml-src PLD1Rjim4Bpx5TlaGYMosjf6amXe0LkoJWLwoYsNbKH9H6ZIM59rZAQ70lr17zO_z2KbAQbsKbt8sHroTdOfAwpaiEcRXXCqM5bDnnZA0MFBbOq1LGs5a7mUC0XbUKjeXLOpyoZK7WbtK6Brs9BkLPrfgGakY_2TCKo7jJu8rJeTQVXP9fDep4PJpMaylBnPtQoA_oYlDVAyU9VdhsbhQqcKlUM5LdPaBZui5ylRsQpo1BWO31U3tmT5dKubgZOTZAVlawiBG0CZmPbPPNTtQ_Ws0xW6b59NJDqhOKqClLiYI5tFL2tvDNJernDnSxJSC1MT8lUskVM1xo-h6TeTTCU0bvj3wI-04W3OS_aC7o6BGbnorTeE_lpy5M3Lat5EV_yO4Ewn4lO8cOVp83x5M0HlnzDXIto7Ghd1iA58OOfUof0IPhlR-nCXSI1XkVV3ddpo7pJioGmCubWxQovffAWuqt40LdlQcWYdgxuAVWWALOUqjanCUpCIAicHndtD6-obPKcI8BNch7F-MPxrBS3BVB7Djjauh52H6-jW56kdvL0C-bJmPw7uH0cU0WXfwLB6mo-DcqbGdjv4adoQvfH2vUxnKsB4RK_AJAyXceMINd0R8QLn3K3_cxqvDV4l?></g></svg>